<svg width="36" height="36" viewBox="0 0 36 36" fill="none" xmlns="http://www.w3.org/2000/svg">
<circle cx="18" cy="18" r="18" fill="#B70D42"/>
<path d="M15.8558 14.5308C16.1246 14.2381 16.1249 13.7633 15.8567 13.4701C15.5884 13.177 15.1531 13.1766 14.8844 13.4692L15.8558 14.5308ZM11.0977 17.5932C10.8289 17.8859 10.8286 18.3607 11.0968 18.6539C11.3651 18.947 11.8004 18.9474 12.0691 18.6548L11.0977 17.5932ZM12.0538 17.5771C11.7769 17.2936 11.3418 17.3088 11.082 17.6108C10.8222 17.9129 10.8361 18.3875 11.113 18.6709L12.0538 17.5771ZM14.8997 22.5469C15.1766 22.8304 15.6117 22.8152 15.8715 22.5132C16.1313 22.2111 16.1174 21.7365 15.8405 21.4531L14.8997 22.5469ZM11.5834 17.374C11.2037 17.374 10.8959 17.7098 10.8959 18.124C10.8959 18.5382 11.2037 18.874 11.5834 18.874V17.374ZM21.0892 18.124V18.874H21.0913L21.0892 18.124ZM23.7292 21.7351C23.7302 22.1493 24.0389 22.4841 24.4186 22.483C24.7983 22.4819 25.1052 22.1451 25.1042 21.7309L23.7292 21.7351ZM14.8844 13.4692L11.0977 17.5932L12.0691 18.6548L15.8558 14.5308L14.8844 13.4692ZM11.113 18.6709L14.8997 22.5469L15.8405 21.4531L12.0538 17.5771L11.113 18.6709ZM11.5834 18.874H21.0892V17.374H11.5834V18.874ZM21.0913 18.874C21.7889 18.8717 22.4588 19.1718 22.9535 19.7084L23.923 18.6447C23.1696 17.8276 22.1495 17.3705 21.0871 17.374L21.0913 18.874ZM22.9535 19.7084C23.4482 20.245 23.7273 20.974 23.7292 21.7351L25.1042 21.7309C25.1013 20.572 24.6764 19.4618 23.923 18.6447L22.9535 19.7084Z" fill="white"/>
</svg>
