<svg width="56" height="73" viewBox="0 0 56 73" fill="none" xmlns="http://www.w3.org/2000/svg">
<path d="M3.45996 60.0786H5.47217V62.6685H11.6421V60.0786H13.6606V70H11.6421V64.3887H5.47217V70H3.45996V60.0786ZM15.7935 66.2549C15.7935 65.7174 15.9014 65.2139 16.1172 64.7441C16.3372 64.2744 16.6483 63.8639 17.0503 63.5127C17.4565 63.1615 17.9453 62.8843 18.5166 62.6812C19.0921 62.478 19.7375 62.3765 20.4526 62.3765C21.1678 62.3765 21.811 62.478 22.3823 62.6812C22.9578 62.8843 23.4466 63.1615 23.8486 63.5127C24.2549 63.8639 24.5659 64.2744 24.7817 64.7441C25.0018 65.2139 25.1118 65.7174 25.1118 66.2549C25.1118 66.7923 25.0018 67.2959 24.7817 67.7656C24.5659 68.2354 24.2549 68.6458 23.8486 68.9971C23.4466 69.3483 22.9578 69.6255 22.3823 69.8286C21.811 70.0317 21.1678 70.1333 20.4526 70.1333C19.7375 70.1333 19.0921 70.0317 18.5166 69.8286C17.9453 69.6255 17.4565 69.3483 17.0503 68.9971C16.6483 68.6458 16.3372 68.2354 16.1172 67.7656C15.9014 67.2959 15.7935 66.7923 15.7935 66.2549ZM17.7676 66.2549C17.7676 66.5553 17.8268 66.841 17.9453 67.1118C18.068 67.3784 18.2437 67.6154 18.4722 67.8228C18.7049 68.0259 18.9863 68.1888 19.3164 68.3115C19.6507 68.43 20.0295 68.4893 20.4526 68.4893C20.8758 68.4893 21.2524 68.43 21.5825 68.3115C21.9168 68.1888 22.1982 68.0259 22.4268 67.8228C22.6595 67.6154 22.8351 67.3784 22.9536 67.1118C23.0763 66.841 23.1377 66.5553 23.1377 66.2549C23.1377 65.9544 23.0763 65.6688 22.9536 65.3979C22.8351 65.1271 22.6595 64.8901 22.4268 64.687C22.1982 64.4797 21.9168 64.3167 21.5825 64.1982C21.2524 64.0755 20.8758 64.0142 20.4526 64.0142C20.0295 64.0142 19.6507 64.0755 19.3164 64.1982C18.9863 64.3167 18.7049 64.4797 18.4722 64.687C18.2437 64.8901 18.068 65.1271 17.9453 65.3979C17.8268 65.6688 17.7676 65.9544 17.7676 66.2549ZM27.0605 62.5098H28.9395V63.1445C29.4092 62.8568 29.8662 62.6579 30.3105 62.5479C30.7591 62.4336 31.1971 62.3765 31.6245 62.3765C32.2212 62.3765 32.7692 62.4717 33.2686 62.6621C33.7679 62.8525 34.1953 63.1403 34.5508 63.5254C34.8258 63.3138 35.0967 63.1361 35.3633 62.9922C35.6299 62.8441 35.8965 62.7256 36.1631 62.6367C36.4297 62.5436 36.7005 62.478 36.9756 62.4399C37.2507 62.3976 37.5342 62.3765 37.8262 62.3765C38.4398 62.3765 38.9963 62.4611 39.4956 62.6304C39.995 62.7954 40.4202 63.043 40.7715 63.373C41.127 63.7031 41.3999 64.1157 41.5903 64.6108C41.785 65.1017 41.8823 65.6709 41.8823 66.3184V70H40.0098V66.623C40.0098 66.2126 39.9505 65.8465 39.832 65.5249C39.7178 65.1991 39.5549 64.9261 39.3433 64.7061C39.1359 64.4818 38.8862 64.3125 38.5942 64.1982C38.3065 64.0798 37.9891 64.0205 37.6421 64.0205C37.4517 64.0205 37.257 64.0396 37.0581 64.0776C36.8592 64.1115 36.6646 64.1665 36.4741 64.2427C36.2879 64.3188 36.1123 64.4162 35.9473 64.5347C35.7822 64.6489 35.6383 64.7843 35.5156 64.9409V70H33.6431V66.623C33.6431 66.2126 33.5838 65.8465 33.4653 65.5249C33.3511 65.1991 33.1882 64.9261 32.9766 64.7061C32.7692 64.4818 32.5174 64.3125 32.2212 64.1982C31.9292 64.0798 31.6076 64.0205 31.2563 64.0205C31.0405 64.0205 30.8226 64.0438 30.6025 64.0903C30.3867 64.1326 30.1772 64.194 29.9741 64.2744C29.7752 64.3548 29.5869 64.4521 29.4092 64.5664C29.2357 64.6807 29.0791 64.8097 28.9395 64.9536V70H27.0605V62.5098ZM43.8945 66.2295C43.8945 65.7217 43.9982 65.2371 44.2056 64.7759C44.4129 64.3104 44.7113 63.8999 45.1006 63.5444C45.4899 63.189 45.966 62.9054 46.5288 62.6938C47.0959 62.4823 47.7391 62.3765 48.4585 62.3765C49.1737 62.3765 49.8169 62.4844 50.3882 62.7002C50.9637 62.9118 51.4504 63.2038 51.8481 63.5762C52.2502 63.9486 52.557 64.3866 52.7686 64.8901C52.9844 65.3937 53.0923 65.9333 53.0923 66.5088C53.0923 66.5807 53.0902 66.659 53.0859 66.7437C53.0859 66.8241 53.0817 66.8981 53.0732 66.9658H45.9893C46.0697 67.1901 46.1987 67.3953 46.3765 67.5815C46.5584 67.7677 46.7848 67.9285 47.0557 68.064C47.3265 68.1994 47.6396 68.3052 47.9951 68.3813C48.3506 68.4533 48.7441 68.4893 49.1758 68.4893C49.6074 68.4893 50.0369 68.4448 50.4644 68.356C50.8918 68.2629 51.3001 68.1465 51.6895 68.0068L52.3242 69.4414C52.0788 69.5557 51.8291 69.6572 51.5752 69.7461C51.3255 69.8307 51.0632 69.9027 50.7881 69.9619C50.5173 70.0169 50.2316 70.0592 49.9312 70.0889C49.6349 70.1185 49.3218 70.1333 48.9917 70.1333C48.1496 70.1333 47.4111 70.0317 46.7764 69.8286C46.1416 69.6255 45.6105 69.3483 45.1831 68.9971C44.7557 68.6458 44.4341 68.2332 44.2183 67.7593C44.0024 67.2853 43.8945 66.7754 43.8945 66.2295ZM51.0991 65.4995C51.0314 65.2922 50.9256 65.0996 50.7817 64.9219C50.6421 64.7399 50.4665 64.5833 50.2549 64.4521C50.0433 64.3167 49.7979 64.2109 49.5186 64.1348C49.2393 64.0586 48.9325 64.0205 48.5981 64.0205C48.2427 64.0205 47.9189 64.0607 47.627 64.1411C47.335 64.2215 47.0789 64.3294 46.8589 64.4648C46.6388 64.6003 46.4548 64.7568 46.3066 64.9346C46.1628 65.1123 46.057 65.3006 45.9893 65.4995H51.0991Z" fill="white"/>
<path d="M55.787 27C55.787 41.9117 43.4748 54 28.287 54C13.0992 54 0.786987 41.9117 0.786987 27C0.786987 12.0883 13.0992 0 28.287 0C43.4748 0 55.787 12.0883 55.787 27Z" fill="#B70D42"/>
<path fill-rule="evenodd" clip-rule="evenodd" d="M28.609 13.1568C28.3264 13.0745 28.0261 13.0745 27.7434 13.1568C27.6622 13.1805 27.5192 13.2398 27.2151 13.47C26.8954 13.7121 26.5038 14.0587 25.8938 14.6009L17.7852 21.8085C16.7911 22.6922 16.5093 22.9587 16.3134 23.2533C16.1249 23.5368 15.9845 23.8494 15.8978 24.1786C15.8077 24.5209 15.7958 24.9084 15.7958 26.2385V33.9778C15.7958 35.3257 15.7971 36.242 15.8558 36.9499C15.9131 37.6393 16.0168 37.9912 16.1443 38.2365C16.4379 38.8018 16.8989 39.2628 17.4642 39.5564C17.7096 39.6839 18.0615 39.7876 18.7508 39.8449C19.4586 39.9037 20.375 39.9049 21.7229 39.9049H21.986V35.2623C21.986 31.8436 24.7574 29.0721 28.1763 29.0721C31.5949 29.0721 34.3664 31.8436 34.3664 35.2623V39.9049H34.6295C35.9774 39.9049 36.8937 39.9037 37.6016 39.8449C38.2909 39.7876 38.6428 39.6839 38.8882 39.5564C39.4535 39.2628 39.9144 38.8018 40.2081 38.2365C40.3356 37.9912 40.4393 37.6393 40.4966 36.9499C40.5552 36.242 40.5566 35.3257 40.5566 33.9778V26.2385C40.5566 24.9084 40.5447 24.5209 40.4545 24.1786C40.3678 23.8494 40.2275 23.5368 40.039 23.2533C39.843 22.9587 39.5612 22.6922 38.5673 21.8085L30.4586 14.6009C29.8485 14.0587 29.457 13.7121 29.1373 13.47C28.8332 13.2398 28.6902 13.1805 28.609 13.1568ZM26.878 10.1852C27.7259 9.93828 28.6264 9.93828 29.4743 10.1852C30.0626 10.3565 30.5503 10.6578 31.0055 11.0024C31.4342 11.3269 31.917 11.7561 32.4729 12.2502L40.6235 19.4952C40.6674 19.5342 40.7106 19.5727 40.7535 19.6107C41.5608 20.3275 42.1706 20.8691 42.6166 21.5398C42.9934 22.1068 43.2743 22.7321 43.4476 23.3906C43.6526 24.1695 43.6523 24.985 43.6517 26.0646C43.6517 26.1219 43.6517 26.1797 43.6517 26.2385V34.0428C43.6517 35.3095 43.6517 36.355 43.581 37.2061C43.5076 38.0903 43.3499 38.9026 42.9547 39.6633C42.3674 40.794 41.4455 41.7157 40.315 42.303C39.5541 42.6982 38.742 42.8559 37.8577 42.9293C37.0066 43 35.9612 43 34.6944 43H34.0647C34.0526 43 34.0405 43 34.0281 43C33.8407 43 33.617 43.0002 33.4198 42.9837C33.1912 42.9649 32.8641 42.9161 32.5225 42.7386C32.0985 42.5184 31.7528 42.1727 31.5326 41.7488C31.3552 41.4071 31.3065 41.08 31.2874 40.8514C31.271 40.6544 31.2712 40.4305 31.2712 40.243L31.2713 35.2623C31.2713 33.5529 29.8855 32.1672 28.1763 32.1672C26.4668 32.1672 25.0811 33.5529 25.0811 35.2623L25.0811 40.243C25.0812 40.4305 25.0813 40.6544 25.0649 40.8514C25.0459 41.08 24.9972 41.4071 24.8197 41.7488C24.5995 42.1727 24.2538 42.5184 23.8299 42.7386C23.4883 42.9161 23.1611 42.9649 22.9326 42.9837C22.7354 43.0002 22.5116 43 22.3242 43C22.3119 43 22.2997 43 22.2878 43H21.658C20.3912 43 19.3458 43 18.4946 42.9293C17.6104 42.8559 16.7982 42.6982 16.0374 42.303C14.9068 41.7157 13.985 40.794 13.3977 39.6633C13.0025 38.9026 12.8448 38.0903 12.7714 37.2061C12.7007 36.355 12.7007 35.3095 12.7007 34.0428V26.2385C12.7007 26.1797 12.7007 26.1219 12.7007 26.0646C12.7001 24.985 12.6997 24.1695 12.9048 23.3906C13.0781 22.7321 13.3589 22.1068 13.7359 21.5398C14.1817 20.8691 14.7916 20.3275 15.5989 19.6107C15.6417 19.5727 15.685 19.5342 15.7289 19.4952L23.8796 12.2502C24.4354 11.7561 24.9182 11.3269 25.3469 11.0024C25.802 10.6578 26.2898 10.3565 26.878 10.1852Z" fill="black"/>
</svg>
