<svg width="57" height="73" viewBox="0 0 57 73" fill="none" xmlns="http://www.w3.org/2000/svg">
<ellipse cx="28.4136" cy="27" rx="28.4136" ry="27" fill="#B70D42"/>
<path d="M7.58061 60.0786H12.8111C13.5728 60.0786 14.233 60.1611 14.7915 60.3262C15.3501 60.4912 15.8135 60.7303 16.1817 61.0435C16.5499 61.3524 16.8228 61.7311 17.0005 62.1797C17.1825 62.6283 17.2735 63.134 17.2735 63.6968C17.2735 64.2257 17.1846 64.7145 17.0069 65.1631C16.8291 65.6117 16.5562 66.001 16.188 66.3311C15.8241 66.6569 15.3628 66.9129 14.8042 67.0991C14.2457 67.2811 13.5855 67.3721 12.8238 67.3721L9.59282 67.3657V70H7.58061V60.0786ZM12.8619 65.6265C13.2427 65.6265 13.5749 65.582 13.8584 65.4932C14.1462 65.4001 14.3853 65.271 14.5757 65.106C14.7704 64.9367 14.9143 64.7336 15.0074 64.4966C15.1047 64.2554 15.1534 63.9888 15.1534 63.6968C15.1534 63.1086 14.9608 62.6515 14.5757 62.3257C14.1949 61.9956 13.6236 61.8306 12.8619 61.8306H9.59282V65.6265H12.8619ZM18.8858 66.2295C18.8858 65.7217 18.9895 65.2371 19.1968 64.7759C19.4042 64.3104 19.7025 63.8999 20.0918 63.5444C20.4812 63.189 20.9572 62.9054 21.5201 62.6938C22.0871 62.4823 22.7304 62.3765 23.4498 62.3765C24.1649 62.3765 24.8082 62.4844 25.3794 62.7002C25.955 62.9118 26.4416 63.2038 26.8394 63.5762C27.2414 63.9486 27.5482 64.3866 27.7598 64.8901C27.9756 65.3937 28.0835 65.9333 28.0835 66.5088C28.0835 66.5807 28.0814 66.659 28.0772 66.7437C28.0772 66.8241 28.073 66.8981 28.0645 66.9658H20.9805C21.0609 67.1901 21.19 67.3953 21.3677 67.5815C21.5497 67.7677 21.7761 67.9285 22.0469 68.064C22.3178 68.1994 22.6309 68.3052 22.9864 68.3813C23.3418 68.4533 23.7354 68.4893 24.167 68.4893C24.5987 68.4893 25.0282 68.4448 25.4556 68.356C25.883 68.2629 26.2914 68.1465 26.6807 68.0068L27.3155 69.4414C27.07 69.5557 26.8204 69.6572 26.5665 69.7461C26.3168 69.8307 26.0544 69.9027 25.7793 69.9619C25.5085 70.0169 25.2229 70.0592 24.9224 70.0889C24.6262 70.1185 24.313 70.1333 23.983 70.1333C23.1408 70.1333 22.4024 70.0317 21.7676 69.8286C21.1329 69.6255 20.6018 69.3483 20.1744 68.9971C19.747 68.6458 19.4253 68.2332 19.2095 67.7593C18.9937 67.2853 18.8858 66.7754 18.8858 66.2295ZM26.0904 65.4995C26.0227 65.2922 25.9169 65.0996 25.773 64.9219C25.6333 64.7399 25.4577 64.5833 25.2461 64.4521C25.0346 64.3167 24.7891 64.2109 24.5098 64.1348C24.2305 64.0586 23.9237 64.0205 23.5894 64.0205C23.2339 64.0205 22.9102 64.0607 22.6182 64.1411C22.3262 64.2215 22.0702 64.3294 21.8501 64.4648C21.6301 64.6003 21.446 64.7568 21.2979 64.9346C21.154 65.1123 21.0482 65.3006 20.9805 65.4995H26.0904ZM30.1084 62.5098H31.9874V63.5889C32.4021 63.2799 32.8401 63.0133 33.3013 62.7891C33.7626 62.5648 34.2217 62.3934 34.6788 62.2749L35.231 63.9951C34.5074 64.0671 33.8705 64.23 33.3204 64.4839C32.7745 64.7336 32.3301 65.0869 31.9874 65.5439V70H30.1084V62.5098ZM37.4527 63.9189H36.1705V62.5098H37.4527C37.4527 62.002 37.5246 61.5513 37.6685 61.1577C37.8124 60.7599 38.0197 60.4256 38.2906 60.1548C38.5656 59.8797 38.8978 59.6702 39.2872 59.5264C39.6807 59.3825 40.1229 59.3105 40.6138 59.3105C40.9566 59.3105 41.293 59.3444 41.6231 59.4121C41.9532 59.4756 42.2452 59.5687 42.4991 59.6914L41.8326 61.272C41.731 61.2127 41.5871 61.1577 41.4009 61.1069C41.219 61.0562 41.0179 61.0308 40.7979 61.0308C40.3663 61.0308 40.0171 61.1535 39.7505 61.3989C39.4882 61.6401 39.3485 62.0104 39.3316 62.5098H41.6993V63.9189H39.3316V70H37.4527V63.9189ZM44.1368 61.4878C43.9506 61.4878 43.7813 61.4624 43.629 61.4116C43.4808 61.3566 43.3539 61.2847 43.2481 61.1958C43.1423 61.1027 43.0598 60.9969 43.0005 60.8784C42.9455 60.7557 42.918 60.6266 42.918 60.4912C42.918 60.3516 42.9455 60.2225 43.0005 60.104C43.0598 59.9813 43.1423 59.8755 43.2481 59.7866C43.3539 59.6978 43.4808 59.6279 43.629 59.5771C43.7813 59.5221 43.9506 59.4946 44.1368 59.4946C44.3272 59.4946 44.4965 59.5221 44.6446 59.5771C44.7969 59.6279 44.926 59.6978 45.0318 59.7866C45.1376 59.8755 45.218 59.9813 45.273 60.104C45.3322 60.2225 45.3619 60.3516 45.3619 60.4912C45.3619 60.6266 45.3322 60.7557 45.273 60.8784C45.218 60.9969 45.1376 61.1027 45.0318 61.1958C44.926 61.2847 44.7969 61.3566 44.6446 61.4116C44.4965 61.4624 44.3272 61.4878 44.1368 61.4878ZM43.1973 62.5098H45.0762V70H43.1973V62.5098ZM47.5391 59.4692H49.418V70H47.5391V59.4692Z" fill="white"/>
<g clip-path="url(#clip0_538_1061)">
<path fill-rule="evenodd" clip-rule="evenodd" d="M39.4137 39.8H18.4147C17.2845 39.8 16.4499 38.6848 16.8761 37.6592C18.854 32.9168 23.5007 30.2 28.9134 30.2C34.3277 30.2 38.9744 32.9168 40.9522 37.6592C41.3785 38.6848 40.5439 39.8 39.4137 39.8ZM22.3803 20.6C22.3803 17.0704 25.312 14.2 28.9134 14.2C32.5164 14.2 35.4465 17.0704 35.4465 20.6C35.4465 24.1296 32.5164 27 28.9134 27C25.312 27 22.3803 24.1296 22.3803 20.6ZM44.8427 39.2176C43.6553 33.8432 39.9412 29.8767 35.0529 28.0767C37.6432 26.0335 39.154 22.7295 38.5987 19.1119C37.9552 14.9151 34.3914 11.5568 30.0893 11.0672C24.1508 10.3904 19.1137 14.9184 19.1137 20.6C19.1137 23.624 20.5445 26.3183 22.7755 28.0767C17.8855 29.8767 14.1731 33.8432 12.9841 39.2176C12.5529 41.1712 14.16 43 16.2 43H41.6268C43.6684 43 45.2755 41.1712 44.8427 39.2176Z" fill="black"/>
</g>
<defs>
<clipPath id="clip0_538_1061">
<rect width="32" height="32" fill="white" transform="translate(12.9136 11)"/>
</clipPath>
</defs>
</svg>
